<?xml version="1.0" encoding="UTF-8"?>
<svg version="1.1" xmlns="http://www.w3.org/2000/svg" width="500" height="500">
<path d="M0 0 C14.28147795 12.03260886 21.69061688 28.94321288 23.625 47.1875 C25.76238841 90.74272603 -14.48172021 141.43300341 -37.0625 175.8125 C-37.56023926 176.57868652 -38.05797852 177.34487305 -38.57080078 178.13427734 C-39.74332149 179.89739496 -40.98920212 181.61138941 -42.25 183.3125 C-42.91 183.3125 -43.57 183.3125 -44.25 183.3125 C-45.74706792 181.34582551 -47.09897164 179.38530219 -48.4375 177.3125 C-48.86748291 176.65604492 -49.29746582 175.99958984 -49.74047852 175.32324219 C-59.92955462 159.66742027 -69.79010962 143.80202242 -78.98681641 127.54199219 C-80.23577023 125.33761524 -81.49818168 123.1413547 -82.76171875 120.9453125 C-115.25241921 64.02618323 -115.25241921 64.02618323 -108.25 34.625 C-107.6483026 32.83105034 -106.9728981 31.06113189 -106.25 29.3125 C-105.87875 28.4143457 -105.87875 28.4143457 -105.5 27.49804688 C-97.39565364 8.45658493 -84.11398801 -3.47855577 -65.25 -11.6875 C-43.12459267 -20.24828431 -18.39874809 -13.63605213 0 0 Z M-66.9375 22.9375 C-73.06124008 28.58530174 -76.79219564 35.84136264 -77.48828125 44.16015625 C-77.73036849 54.64635619 -75.99884518 62.41860024 -69.25 70.625 C-62.2626151 77.89002934 -53.70734193 81.73595161 -43.75 82.625 C-33.65644169 82.3964666 -25.45922711 78.71821317 -18.34375 71.68359375 C-10.87175758 63.22184114 -8.7400365 55.32921876 -8.94921875 44.06640625 C-9.76529883 33.88130288 -14.81403111 27.08669172 -22.25 20.3125 C-36.20154263 9.55923519 -53.98704976 12.355254 -66.9375 22.9375 Z " fill="#F36703" transform="translate(293.25,165.6875)"/>
<path d="M0 0 C8.86480358 10.10964834 11.50516092 25.37689878 10.875 38.5 C10.20299239 45.29474363 8.25903442 51.5801394 6 58 C5.67 58 5.34 58 5 58 C4.73763628 53.80218049 4.76134648 51.53697041 6.5 47.625 C9.28499907 41.01719559 8.40348527 33.02219549 8 26 C7.67 25.67 7.34 25.34 7 25 C6.92820036 23.48071962 6.91607993 21.95832518 6.9375 20.4375 C6.94652344 19.61121094 6.95554687 18.78492188 6.96484375 17.93359375 C6.97644531 17.29550781 6.98804688 16.65742188 7 16 C6.34 16 5.68 16 5 16 C5 14.35 5 12.7 5 11 C4.01 10.67 3.02 10.34 2 10 C2 8.02 2 6.04 2 4 C1.34 4 0.68 4 0 4 C0 2.68 0 1.36 0 0 Z " fill="#E99A5B" transform="translate(306,182)"/>
<path d="M0 0 C0.99 0 1.98 0 3 0 C3.66 1.32 4.32 2.64 5 4 C5.99 3.67 6.98 3.34 8 3 C8 3.66 8 4.32 8 5 C8.99 4.67 9.98 4.34 11 4 C11.66 4 12.32 4 13 4 C13.33 3.34 13.66 2.68 14 2 C14.99 2.33 15.98 2.66 17 3 C15.88368586 4.83863505 14.75670373 6.67079723 13.625 8.5 C12.99851563 9.5209375 12.37203125 10.541875 11.7265625 11.59375 C11.15679687 12.3878125 10.58703125 13.181875 10 14 C9.34 14 8.68 14 8 14 C6.55036041 12.09625645 5.18815677 10.12532841 3.875 8.125 C2.78832031 6.48917969 2.78832031 6.48917969 1.6796875 4.8203125 C0 2 0 2 0 0 Z " fill="#EA843B" transform="translate(241,335)"/>
<path d="M0 0 C1.485 0.99 1.485 0.99 3 2 C3.69480469 2.27070313 4.38960937 2.54140625 5.10546875 2.8203125 C7 4 7 4 7.86328125 6.2421875 C8.01152344 7.11101562 8.15976563 7.97984375 8.3125 8.875 C8.47363281 9.73867188 8.63476562 10.60234375 8.80078125 11.4921875 C8.99871601 13.98383678 8.66137472 15.6210676 8 18 C6.46648472 15.56969216 4.94816498 13.13194897 3.4375 10.6875 C2.78104492 9.65206055 2.78104492 9.65206055 2.11132812 8.59570312 C1.70205078 7.92861328 1.29277344 7.26152344 0.87109375 6.57421875 C0.29766235 5.65515747 0.29766235 5.65515747 -0.28735352 4.7175293 C-1 3 -1 3 0 0 Z " fill="#EB7925" transform="translate(215,290)"/>
<path d="M0 0 C0.33 0 0.66 0 1 0 C0.97905273 0.5576001 0.95810547 1.1152002 0.93652344 1.68969727 C0.58013895 12.66882049 0.71964567 22.46890747 4.125 32.96875 C4.95160513 35.83234634 5.17647513 38.04404163 5 41 C-2.27877474 30.0818379 -2.62350973 14.55795577 -0.48046875 1.94140625 C-0.32191406 1.30074219 -0.16335937 0.66007813 0 0 Z " fill="#EC9C5F" transform="translate(185,201)"/>
<path d="M0 0 C0 0.66 0 1.32 0 2 C-0.99 2 -1.98 2 -3 2 C-3.061875 2.763125 -3.12375 3.52625 -3.1875 4.3125 C-4 7 -4 7 -6.1875 8.8125 C-9.34410166 10.14528737 -11.60737019 10.2366951 -15 10 C-11.33829025 5.99500496 -5.76187936 0 0 0 Z " fill="#EC7D2B" transform="translate(221,158)"/>
<path d="M0 0 C0.66 0.66 1.32 1.32 2 2 C1.67028521 5.29714793 1.3773161 6.6226839 -1 9 C-1.46380081 11.41936028 -1.46380081 11.41936028 -1.6328125 14.2265625 C-1.75849609 15.7734375 -1.75849609 15.7734375 -1.88671875 17.3515625 C-1.96535156 18.43179688 -2.04398438 19.51203125 -2.125 20.625 C-2.21136719 21.71296875 -2.29773438 22.8009375 -2.38671875 23.921875 C-2.59925957 26.61405877 -2.80332432 29.30661828 -3 32 C-3.33 32 -3.66 32 -4 32 C-4.34388646 8.31004367 -4.34388646 8.31004367 0 0 Z " fill="#E36B13" transform="translate(189,190)"/>
<path d="M0 0 C0.33 0 0.66 0 1 0 C1.33 2.31 1.66 4.62 2 7 C1.360625 7.268125 0.72125 7.53625 0.0625 7.8125 C-2.33131686 8.88667752 -2.33131686 8.88667752 -3 12 C-8.25714286 16 -8.25714286 16 -12 16 C-11.46890625 15.5153125 -10.9378125 15.030625 -10.390625 14.53125 C-5.61847521 10.00293268 -2.5922014 6.04846993 0 0 Z " fill="#E99556" transform="translate(282,225)"/>
<path d="M0 0 C0.99 0 1.98 0 3 0 C3.33 5.28 3.66 10.56 4 16 C3.34 15.67 2.68 15.34 2 15 C1.375 11.9375 1.375 11.9375 1 9 C0.34 9 -0.32 9 -1 9 C-0.67 6.03 -0.34 3.06 0 0 Z " fill="#EB8133" transform="translate(213,208)"/>
<path d="M0 0 C0.99 0.33 1.98 0.66 3 1 C3 4.63 3 8.26 3 12 C2.34 12 1.68 12 1 12 C0.67 13.32 0.34 14.64 0 16 C-1.18224668 12.45325997 -0.89329634 10.02477005 -0.5625 6.3125 C-0.46066406 5.13300781 -0.35882813 3.95351562 -0.25390625 2.73828125 C-0.17011719 1.83464844 -0.08632813 0.93101562 0 0 Z " fill="#EB8D47" transform="translate(284,208)"/>
<path d="M0 0 C0 3.88091967 -1.65317733 6.39673296 -3.5 9.6875 C-3.83386719 10.29400391 -4.16773438 10.90050781 -4.51171875 11.52539062 C-5.335537 13.02003231 -6.16703451 14.51043671 -7 16 C-7.33 16 -7.66 16 -8 16 C-8.6875 13.1875 -8.6875 13.1875 -9 10 C-7.6875 8.125 -7.6875 8.125 -6 7 C-5.34 7 -4.68 7 -4 7 C-4 5.68 -4 4.36 -4 3 C-3.34 3 -2.68 3 -2 3 C-2 2.34 -2 1.68 -2 1 C-1.34 0.67 -0.68 0.34 0 0 Z " fill="#E88339" transform="translate(291,281)"/>
<path d="M0 0 C1.98 0.99 3.96 1.98 6 3 C5.67 4.65 5.34 6.3 5 8 C5.99 8 6.98 8 8 8 C8.33 7.01 8.66 6.02 9 5 C9.33 6.32 9.66 7.64 10 9 C9.34 9 8.68 9 8 9 C8.33 9.99 8.66 10.98 9 12 C8.34 12.66 7.68 13.32 7 14 C5.82807953 12.04480616 4.6626071 10.0857461 3.5 8.125 C2.8503125 7.03445313 2.200625 5.94390625 1.53125 4.8203125 C0 2 0 2 0 0 Z " fill="#EB7B2B" transform="translate(206,277)"/>
<path d="M0 0 C0.99 0.99 1.98 1.98 3 3 C3.66 2.67 4.32 2.34 5 2 C4.96744792 4.01822917 4.93489583 6.03645833 4.90234375 8.0546875 C4.87350758 10.08185404 4.87350758 10.08185404 6 12 C5.01 13.485 5.01 13.485 4 15 C3.13419713 13.06767179 2.28270059 11.12892806 1.4375 9.1875 C0.96183594 8.10855469 0.48617187 7.02960938 -0.00390625 5.91796875 C-1 3 -1 3 0 0 Z " fill="#EA863C" transform="translate(191,242)"/>
<path d="M0 0 C0.33 0 0.66 0 1 0 C1.125 7.75 1.125 7.75 0 10 C-0.99 10 -1.98 10 -3 10 C-3.33 10.66 -3.66 11.32 -4 12 C-4.66 12 -5.32 12 -6 12 C-4.68315519 7.39104317 -2.84801255 3.85859765 0 0 Z " fill="#E98133" transform="translate(196,178)"/>
<path d="M0 0 C-0.93307421 1.44037669 -1.87165077 2.87718985 -2.8125 4.3125 C-3.33457031 5.11300781 -3.85664063 5.91351563 -4.39453125 6.73828125 C-5.80389849 8.7237402 -7.22096657 10.3491852 -9 12 C-7.97394137 -0.31270358 -7.97394137 -0.31270358 0 0 Z " fill="#EA873C" transform="translate(227,188)"/>
<path d="M0 0 C7.79417256 2.64121462 7.79417256 2.64121462 10.9765625 5.546875 C9.6565625 5.876875 8.3365625 6.206875 6.9765625 6.546875 C6.6465625 5.556875 6.3165625 4.566875 5.9765625 3.546875 C5.33847656 3.49789062 4.70039063 3.44890625 4.04296875 3.3984375 C3.21667969 3.32367188 2.39039063 3.24890625 1.5390625 3.171875 C0.71535156 3.10226563 -0.10835938 3.03265625 -0.95703125 2.9609375 C-1.63894531 2.82429687 -2.32085937 2.68765625 -3.0234375 2.546875 C-3.3534375 1.886875 -3.6834375 1.226875 -4.0234375 0.546875 C-2.0234375 -0.453125 -2.0234375 -0.453125 0 0 Z " fill="#EA8B43" transform="translate(272.0234375,154.453125)"/>
<path d="M0 0 C4.52696974 5.28146469 6.32594963 8.99208297 6 16 C5.67 16 5.34 16 5 16 C5 14.35 5 12.7 5 11 C4.01 10.67 3.02 10.34 2 10 C2 8.02 2 6.04 2 4 C1.34 4 0.68 4 0 4 C0 2.68 0 1.36 0 0 Z " fill="#E78E4B" transform="translate(306,182)"/>
<path d="M0 0 C0.99 0 1.98 0 3 0 C3.66 1.32 4.32 2.64 5 4 C5.99 3.67 6.98 3.34 8 3 C8.33 4.32 8.66 5.64 9 7 C5.35521088 7 3.90696599 6.14197494 1 4 C0.1875 1.8125 0.1875 1.8125 0 0 Z " fill="#EC7D29" transform="translate(241,335)"/>
<path d="M0 0 C3.93673644 1.31224548 6.22719294 2.91910327 9 6 C6.625 6.625 6.625 6.625 4 7 C1.77810176 4.77810176 1.07401108 2.91517292 0 0 Z " fill="#E9863C" transform="translate(283,160)"/>
<path d="M0 0 C3 1 3 1 4.16796875 3.06640625 C4.50441406 3.89011719 4.84085938 4.71382813 5.1875 5.5625 C5.53167969 6.38878906 5.87585938 7.21507812 6.23046875 8.06640625 C6.48441406 8.70449219 6.73835937 9.34257812 7 10 C6.34 10.66 5.68 11.32 5 12 C4.16180842 10.37750059 3.3295884 8.75191503 2.5 7.125 C2.0359375 6.22007812 1.571875 5.31515625 1.09375 4.3828125 C0 2 0 2 0 0 Z " fill="#E98E4A" transform="translate(200,265)"/>
<path d="M0 0 C0 3.10551666 -0.5393715 4.35261084 -2 7 C-2.66 7 -3.32 7 -4 7 C-4 7.66 -4 8.32 -4 9 C-5.32 9.33 -6.64 9.66 -8 10 C-5.83735988 6.01618925 -3.28788824 3.11016455 0 0 Z " fill="#EA8A45" transform="translate(205,168)"/>
<path d="M0 0 C0.66 0.33 1.32 0.66 2 1 C-0.62984711 4.94477066 -2.43284559 5.02667201 -7 6 C-9.33215844 6.07403678 -11.66860788 6.09515886 -14 6 C-14 5.67 -14 5.34 -14 5 C-13.07316406 4.72285156 -12.14632812 4.44570312 -11.19140625 4.16015625 C-9.99386719 3.79792969 -8.79632813 3.43570313 -7.5625 3.0625 C-6.36753906 2.70285156 -5.17257812 2.34320313 -3.94140625 1.97265625 C-1.14132455 1.29110858 -1.14132455 1.29110858 0 0 Z " fill="#EB985D" transform="translate(268,242)"/>
<path d="M0 0 C4 5 4 5 8 10 C6.35 10 4.7 10 3 10 C2.67 8.02 2.34 6.04 2 4 C1.34 4 0.68 4 0 4 C0 2.68 0 1.36 0 0 Z " fill="#E9914D" transform="translate(219,229)"/>
<path d="M0 0 C0.66 0.66 1.32 1.32 2 2 C1.82194873 5.38297413 1.21162756 6.76272061 -1.0625 9.3125 C-1.701875 9.869375 -2.34125 10.42625 -3 11 C-2.44894091 7.0507432 -1.61064629 3.65079826 0 0 Z " fill="#EA8A44" transform="translate(189,190)"/>
<path d="M0 0 C2.475 0.495 2.475 0.495 5 1 C5 1.99 5 2.98 5 4 C5.99 4.33 6.98 4.66 8 5 C8 6.65 8 8.3 8 10 C5.33333333 6.66666667 2.66666667 3.33333333 0 0 Z " fill="#EA9352" transform="translate(273,188)"/>
<path d="M0 0 C0.66 0.33 1.32 0.66 2 1 C1.34 2.65 0.68 4.3 0 6 C-1.98 6 -3.96 6 -6 6 C-4 4 -2 2 0 0 Z " fill="#EB8941" transform="translate(212,162)"/>
<path d="M0 0 C5.94 1.485 5.94 1.485 12 3 C12 3.33 12 3.66 12 4 C8.7 4 5.4 4 2 4 C1.34 2.68 0.68 1.36 0 0 Z " fill="#EB9857" transform="translate(234,244)"/>
<path d="M0 0 C2.97 0.495 2.97 0.495 6 1 C3.01353231 2.99097846 0.40312738 3.94124926 -3 5 C-3 4.01 -3 3.02 -3 2 C-2.01 2 -1.02 2 0 2 C0 1.34 0 0.68 0 0 Z " fill="#E9914B" transform="translate(236,179)"/>
<path d="M0 0 C1.98 0.99 3.96 1.98 6 3 C5.67 4.98 5.34 6.96 5 9 C0.57142857 3.85714286 0.57142857 3.85714286 0 0 Z " fill="#EF944C" transform="translate(206,277)"/>
<path d="M0 0 C2.99324263 1.0975223 3.84610901 1.67682892 5.25 4.625 C5.4975 5.40875 5.745 6.1925 6 7 C5.01 7 4.02 7 3 7 C0 2.77777778 0 2.77777778 0 0 Z " fill="#E99253" transform="translate(230,318)"/>
<path d="M0 0 C1.32 0.66 2.64 1.32 4 2 C2.02 4.97 2.02 4.97 0 8 C-0.98120464 4.94736336 -0.98120464 3.05263664 0 0 Z " fill="#EA8A44" transform="translate(269,313)"/>
<path d="M0 0 C0.99 0.33 1.98 0.66 3 1 C1.68 3.31 0.36 5.62 -1 8 C-1.33 8 -1.66 8 -2 8 C-2 6.02 -2 4.04 -2 2 C-1.34 2 -0.68 2 0 2 C0 1.34 0 0.68 0 0 Z " fill="#E98C47" transform="translate(279,299)"/>
<path d="M0 0 C0 3.69418201 -1.28179295 5.77836178 -3 9 C-3.33 9 -3.66 9 -4 9 C-4 7.02 -4 5.04 -4 3 C-3.34 3 -2.68 3 -2 3 C-2 2.34 -2 1.68 -2 1 C-1.34 0.67 -0.68 0.34 0 0 Z " fill="#EA9352" transform="translate(291,281)"/>
<path d="M0 0 C1.5 1.1875 1.5 1.1875 3 3 C3.1875 5.6875 3.1875 5.6875 3 8 C0.52557871 5.84832931 -0.56238367 4.28212246 -1 1 C-0.67 0.67 -0.34 0.34 0 0 Z " fill="#EB914D" transform="translate(215,290)"/>
<path d="M0 0 C0.99 0.33 1.98 0.66 3 1 C1.25 6.75 1.25 6.75 -1 9 C-0.67 6.03 -0.34 3.06 0 0 Z " fill="#E88741" transform="translate(301,256)"/>
</svg>
